<?xml version="1.0" encoding="UTF-8" standalone="no"?>
<!-- Created with Inkscape (http://www.inkscape.org/) -->

<svg
   width="52.916668mm"
   height="50.084061mm"
   viewBox="0 0 52.916668 50.084061"
   version="1.1"
   id="svg248"
   inkscape:version="1.1.2 (b8e25be833, 2022-02-05)"
   sodipodi:docname="barklarm.svg"
   xmlns:inkscape="http://www.inkscape.org/namespaces/inkscape"
   xmlns:sodipodi="http://sodipodi.sourceforge.net/DTD/sodipodi-0.dtd"
   xmlns="http://www.w3.org/2000/svg"
   xmlns:svg="http://www.w3.org/2000/svg"
   xmlns:sketchjs="https://sketch.io/dtd/">
  <sodipodi:namedview
     id="namedview250"
     pagecolor="#ffffff"
     bordercolor="#666666"
     borderopacity="1.0"
     inkscape:pageshadow="2"
     inkscape:pageopacity="0.0"
     inkscape:pagecheckerboard="0"
     inkscape:document-units="mm"
     showgrid="true"
     inkscape:zoom="0.54866744"
     inkscape:cx="494.83526"
     inkscape:cy="568.65047"
     inkscape:window-width="1920"
     inkscape:window-height="1057"
     inkscape:window-x="-8"
     inkscape:window-y="-8"
     inkscape:window-maximized="1"
     inkscape:current-layer="layer1"
     fit-margin-top="0"
     fit-margin-left="0"
     fit-margin-right="0"
     fit-margin-bottom="0">
    <inkscape:grid
       type="xygrid"
       id="grid383"
       originx="-47.403002"
       originy="-93.591445" />
  </sodipodi:namedview>
  <defs
     id="defs245" />
  <g
     inkscape:label="Capa 1"
     inkscape:groupmode="layer"
     id="layer1"
     transform="translate(-47.403,-93.591442)">
    <g
       sketchjs:tool="clipart"
       transform="matrix(0.6240173,0,0,0.6240173,42.660469,86.040833)"
       id="g69">
      <g
         sketchjs:uid="1"
         style="fill:#913fbb;fill-opacity:1"
         id="g67">
        <path
           d="m 70.1,12.1 v 8.1 H 29.9 V 12.1 C 16.6,19.3 7.6,33.3 7.6,49.4 c 0,15.5 8.3,29.1 20.8,36.5 L 50,64.3 71.6,85.9 C 84,78.5 92.4,64.9 92.4,49.4 92.4,33.3 83.4,19.3 70.1,12.1 Z M 22.7,54.7 c -2.1,0 -3.9,-1.7 -3.9,-3.9 0,-2.1 1.7,-3.9 3.9,-3.9 2.2,0 3.9,1.7 3.9,3.9 -0.1,2.2 -1.8,3.9 -3.9,3.9 z M 50,64.2 39.1,53.4 H 60.8 Z M 75.9,54.7 C 73.8,54.7 72,53 72,50.8 c 0,-2.1 1.7,-3.9 3.9,-3.9 2.1,0 3.9,1.7 3.9,3.9 0,2.2 -1.7,3.9 -3.9,3.9 z"
           sketchjs:uid="2"
           id="path63" />
        <path
           d="m 38.4,80.7 c 3.5,1.8 7.4,2.9 11.6,2.9 4.2,0 8.1,-1 11.6,-2.9 L 50,69.1 Z"
           sketchjs:uid="3"
           style="fill:#ff0300"
           id="path65" />
      </g>
    </g>
    <g
       sketchjs:tool="clipart"
       transform="matrix(-9.5343132e-4,0.72070615,-0.72070615,-9.5343132e-4,855.40508,777.61904)"
       id="g61">
      <path
         d="m -882.97889,1071.4569 c -0.4,-0.5 -1.2,-0.6 -1.7,-0.1 l -2,1.8 c -0.5,0.4 -0.5,1.1 -0.1,1.6 2.3,2.9 3.6,6.5 3.6,10.4 0,3.9 -1.4,7.6 -3.6,10.4 -0.4,0.5 -0.3,1.2 0.1,1.6 l 2,1.8 c 0.5,0.4 1.3,0.4 1.7,-0.1 3,-3.7 4.8,-8.5 4.8,-13.7 0,-5.2 -1.8,-9.9 -4.8,-13.7 z"
         sketchjs:uid="3"
         style="fill:#ff0300;fill-opacity:1"
         id="path51" />
    </g>
  </g>
</svg>
